<svg width="1920" height="1020" viewBox="0 0 1920 1020" fill="none" xmlns="http://www.w3.org/2000/svg">
<mask id="mask0_11454_28338" style="mask-type:alpha" maskUnits="userSpaceOnUse" x="0" y="0" width="1920" height="1020">
<rect width="1920" height="1020" fill="#D9D9D9"/>
</mask>
<g mask="url(#mask0_11454_28338)">
<g filter="url(#filter0_i_11454_28338)">
<path d="M1240.26 97.8194L1575.72 -18.8558C1603.21 -28.4167 1632.97 -26.2013 1659.83 -15.0387C1675.01 -8.71001 1692.39 -7.7763 1709.09 -13.5831C1724.38 -18.9037 1736.6 -29.0854 1744.69 -41.8484C1763.31 -71.1826 1790.72 -93.7192 1823.49 -105.117L2015.76 -171.989C2075.56 -192.785 2141.64 -192.734 2199.45 -166.681C2226.72 -154.35 2258.58 -152.343 2288.93 -163.685C2346.25 -185.102 2378.17 -248.996 2360.77 -307.777C2341.52 -372.894 2271.96 -408.21 2208.75 -386.225C2178.62 -375.746 2155.4 -354.147 2142.19 -327.563C2114.85 -272.768 2064.82 -232.678 2006.96 -212.557L1810.03 -144.064C1777.26 -132.667 1741.78 -133.327 1708.98 -144.782C1694.71 -149.766 1678.82 -150.171 1663.52 -144.851C1646.82 -139.044 1633.8 -127.445 1625.8 -113.146C1611.66 -87.7229 1589.7 -67.52 1562.21 -57.9591L1226.67 58.7431C1182.48 74.1107 1133.33 70.4389 1093.1 46.3851C1063.55 28.7411 1026.5 24.0873 991.598 37.1004C934.338 58.6734 902.443 122.644 919.841 181.426C939.094 246.542 1008.65 281.859 1071.86 259.874C1104.79 248.423 1129.29 223.759 1141.78 193.848C1160.29 149.454 1194.83 113.619 1240.26 97.8194Z" fill="url(#paint0_radial_11454_28338)"/>
</g>
<g filter="url(#filter1_i_11454_28338)">
<path d="M1740.87 707.786L1740.48 706.911C1761.76 755.033 1766.28 809.747 1748.77 859.331C1740.48 882.723 1741.02 909.233 1752.47 933.608C1774.09 979.636 1829 1001.83 1876.3 983.526C1928.69 963.27 1953.04 903.343 1930.54 852.471C1919.82 828.223 1900.4 810.435 1877.55 801.26C1830.46 782.261 1793.94 743.496 1773.35 696.936L1772.08 694.061C1756.35 658.501 1755.99 617.566 1773.06 582.67C1785.58 557.035 1786.87 526.057 1773.72 498.022C1752.16 451.966 1697.19 429.804 1649.89 448.104C1597.5 468.36 1573.15 528.288 1595.65 579.159C1607.37 605.657 1629.41 624.305 1654.94 632.662C1692.85 645.041 1724.79 671.261 1740.96 707.821L1740.87 707.786Z" fill="url(#paint1_radial_11454_28338)"/>
</g>
<path d="M1862.27 -5.2863L1862.74 -4.23403C1837.14 -62.1107 1831.71 -127.916 1852.77 -187.552C1862.75 -215.686 1862.1 -247.569 1848.32 -276.886C1822.32 -332.244 1756.27 -358.933 1699.39 -336.923C1636.37 -312.561 1607.1 -240.485 1634.15 -179.301C1647.05 -150.137 1670.41 -128.744 1697.88 -117.709C1754.52 -94.8583 1798.45 -48.2349 1823.21 7.76276L1824.74 11.2203C1843.65 53.989 1844.09 103.222 1823.55 145.192C1808.5 176.024 1806.95 213.282 1822.76 246.999C1848.69 302.391 1914.81 329.047 1971.69 307.037C2034.71 282.675 2063.99 210.599 2036.93 149.415C2022.84 117.545 1996.33 95.1176 1965.62 85.0662C1920.03 70.1782 1881.61 38.643 1862.16 -5.3283L1862.27 -5.2863Z" fill="url(#paint2_radial_11454_28338)"/>
<path d="M1489.72 768.664C1512.11 758.764 1522.23 732.59 1512.33 710.203C1502.43 687.816 1476.26 677.693 1453.87 687.593C1431.48 697.493 1421.36 723.667 1431.26 746.054C1441.16 768.441 1467.33 778.564 1489.72 768.664Z" fill="url(#paint3_radial_11454_28338)"/>
<path d="M1563.29 376.17C1575.97 368.853 1580.31 352.649 1572.99 339.976C1565.68 327.303 1549.47 322.961 1536.8 330.278C1524.13 337.595 1519.78 353.799 1527.1 366.472C1534.42 379.145 1550.62 383.487 1563.29 376.17Z" fill="#FFD600"/>
<path d="M456.168 662.051C461.679 658.869 463.567 651.823 460.385 646.312C457.204 640.801 450.157 638.913 444.646 642.095C439.136 645.276 437.247 652.323 440.429 657.834C443.611 663.344 450.657 665.233 456.168 662.051Z" fill="#FFD600"/>
<path d="M1798.22 998.973C1805.75 994.623 1808.33 984.989 1803.98 977.454C1799.63 969.92 1790 967.338 1782.46 971.688C1774.93 976.039 1772.35 985.673 1776.7 993.207C1781.05 1000.74 1790.68 1003.32 1798.22 998.973Z" fill="#FF66C3"/>
<path opacity="0.5" d="M1282.35 369.472L1302.06 354.056L1297.78 332.526L1312.41 348.891L1336.58 342.418L1316.87 357.834L1321.15 379.364L1306.52 362.999L1282.35 369.472Z" fill="white"/>
<path opacity="0.9" d="M1858.06 760.689L1858.04 760.996L1858.3 761.157L1878.48 773.539L1854.81 773.139L1854.5 773.134L1854.36 773.406L1841.95 796.963L1844.15 770.431L1844.17 770.125L1843.91 769.964L1823.73 757.581L1847.41 757.981L1847.71 757.986L1847.86 757.714L1860.26 734.158L1858.06 760.689Z" stroke="white"/>
<g filter="url(#filter2_i_11454_28338)">
<path d="M-390.268 591.81L-171.336 470.48C-153.396 460.538 -132.466 458.501 -112.471 463.025C-101.175 465.596 -88.9899 464.156 -78.0939 458.117C-68.1102 452.584 -60.8519 444.046 -56.7636 434.211C-47.3651 411.605 -31.035 392.661 -9.64863 380.809L115.832 311.269C154.854 289.643 200.752 281.737 244.025 292.883C264.443 298.169 286.809 295.734 306.523 284.211C343.749 262.452 358.239 214.248 339.095 175.52C317.901 132.615 265.354 116.45 224.101 139.311C204.438 150.208 190.912 167.997 184.932 188.045C172.531 229.38 142.602 263.231 104.847 284.155L-23.6746 355.38C-45.061 367.232 -69.7807 371.037 -93.9316 367.024C-104.439 365.277 -115.526 366.906 -125.51 372.439C-136.406 378.477 -144.058 388.097 -147.893 398.987C-154.656 418.34 -167.478 435.008 -185.419 444.95L-404.401 566.308C-433.238 582.289 -467.811 585.645 -498.635 573.775C-521.276 565.074 -547.561 566.294 -570.237 579.525C-607.407 601.386 -621.869 649.64 -602.724 688.368C-581.531 731.273 -528.984 747.439 -487.731 724.577C-466.243 712.669 -452.194 692.598 -447.114 670.327C-439.596 637.275 -419.916 608.24 -390.268 591.81Z" fill="url(#paint4_radial_11454_28338)"/>
</g>
<path d="M-212.146 1359L-212.903 1358.13C-171.262 1405.79 -146.516 1467 -148.896 1530.2C-150.055 1560.03 -139.957 1590.28 -118.094 1614.18C-76.809 1659.3 -5.81473 1665.15 41.9558 1627.23C94.8823 1585.23 101.409 1507.71 57.3884 1457.34C36.4055 1433.33 7.74463 1419.84 -21.768 1417.47C-82.6389 1412.49 -138.442 1381.04 -178.731 1334.93L-181.218 1332.08C-211.99 1296.87 -227.038 1249.99 -219.909 1203.81C-214.698 1169.9 -224.297 1133.87 -249.413 1106.37C-290.636 1061.19 -361.692 1055.4 -409.462 1093.32C-462.389 1135.32 -468.916 1212.84 -424.895 1263.21C-401.965 1289.45 -369.992 1302.99 -337.677 1303.45C-289.726 1304.12 -243.667 1322.8 -212.03 1359.01L-212.146 1359Z" fill="url(#paint5_radial_11454_28338)"/>
<path d="M395.673 731.438C428.736 702.546 432.302 652.531 403.637 619.728C374.972 586.925 324.931 583.755 291.867 612.648C258.804 641.54 255.238 691.555 283.903 724.358C312.568 757.161 362.609 760.331 395.673 731.438Z" fill="url(#paint6_radial_11454_28338)"/>
<path opacity="0.9" d="M152.904 813.214L153.117 813.436L153.411 813.345L173.964 807.031L159.477 822.919L159.27 823.147L159.38 823.434L167.969 845.996L151.235 828.595L151.022 828.373L150.728 828.463L130.175 834.777L144.662 818.889L144.869 818.662L144.759 818.374L136.17 795.812L152.904 813.214Z" stroke="white"/>
<path d="M133.82 399.029C140.722 394.761 142.857 385.706 138.588 378.804C134.32 371.902 125.265 369.767 118.364 374.036C111.462 378.304 109.327 387.359 113.595 394.26C117.863 401.162 126.918 403.297 133.82 399.029Z" fill="#FF66C3"/>
<path d="M609.074 303.339C621.52 295.642 625.37 279.314 617.673 266.868C609.976 254.423 593.648 250.573 581.202 258.269C568.757 265.966 564.907 282.294 572.603 294.74C580.3 307.185 596.628 311.035 609.074 303.339Z" fill="#0573FF"/>
<path opacity="0.5" d="M82.7017 448.061L92.4177 439.976L89.9304 429.171L97.5668 437.21L109.672 433.573L99.9557 441.657L102.443 452.463L94.8066 444.423L82.7017 448.061Z" fill="white"/>
</g>
<defs>



<style>
    @keyframes myAnim {
	0%,
	100% {
		transform: translateX(0);
	}

	10%,
	30%,
	50%,
	70% {
		transform: translateX(-5px);
	}

	20%,
	40%,
	60% {
		transform: translateX(10px);
	}

	80% {
		transform: translateX(8px);
	}

	90% {
		transform: translateX(-8px);
	}
}
    svg g:first-child{
        animation: myAnim 20s infinite;
    }

    svg g:nth-child(2){
        <!-- animation: myAnim 25s infinite; -->
        animation: myAnim 20s ease 0s 1 alternate forwards;
    }
    </style>




<filter id="filter0_i_11454_28338" x="915.095" y="-432.761" width="1450.42" height="699.17" filterUnits="userSpaceOnUse" color-interpolation-filters="sRGB">
<feFlood flood-opacity="0" result="BackgroundImageFix"/>
<feBlend mode="normal" in="SourceGraphic" in2="BackgroundImageFix" result="shape"/>
<feColorMatrix in="SourceAlpha" type="matrix" values="0 0 0 0 0 0 0 0 0 0 0 0 0 0 0 0 0 0 127 0" result="hardAlpha"/>
<feOffset dy="-50"/>
<feGaussianBlur stdDeviation="20"/>
<feComposite in2="hardAlpha" operator="arithmetic" k2="-1" k3="1"/>
<feColorMatrix type="matrix" values="0 0 0 0 0 0 0 0 0 0 0 0 0 0 0 0 0 0 0.2 0"/>
<feBlend mode="normal" in2="shape" result="effect1_innerShadow_11454_28338"/>
</filter>
<filter id="filter1_i_11454_28338" x="1587.27" y="441.69" width="351.659" height="578.247" filterUnits="userSpaceOnUse" color-interpolation-filters="sRGB">
<feFlood flood-opacity="0" result="BackgroundImageFix"/>
<feBlend mode="normal" in="SourceGraphic" in2="BackgroundImageFix" result="shape"/>
<feColorMatrix in="SourceAlpha" type="matrix" values="0 0 0 0 0 0 0 0 0 0 0 0 0 0 0 0 0 0 127 0" result="hardAlpha"/>
<feOffset dy="30"/>
<feGaussianBlur stdDeviation="25"/>
<feComposite in2="hardAlpha" operator="arithmetic" k2="-1" k3="1"/>
<feColorMatrix type="matrix" values="0 0 0 0 0 0 0 0 0 0 0 0 0 0 0 0 0 0 0.25 0"/>
<feBlend mode="normal" in2="shape" result="effect1_innerShadow_11454_28338"/>
</filter>
<filter id="filter2_i_11454_28338" x="-611.175" y="128.935" width="958.713" height="636.019" filterUnits="userSpaceOnUse" color-interpolation-filters="sRGB">
<feFlood flood-opacity="0" result="BackgroundImageFix"/>
<feBlend mode="normal" in="SourceGraphic" in2="BackgroundImageFix" result="shape"/>
<feColorMatrix in="SourceAlpha" type="matrix" values="0 0 0 0 0 0 0 0 0 0 0 0 0 0 0 0 0 0 127 0" result="hardAlpha"/>
<feOffset dy="50"/>
<feGaussianBlur stdDeviation="15"/>
<feComposite in2="hardAlpha" operator="arithmetic" k2="-1" k3="1"/>
<feColorMatrix type="matrix" values="0 0 0 0 1 0 0 0 0 1 0 0 0 0 1 0 0 0 0.12 0"/>
<feBlend mode="normal" in2="shape" result="effect1_innerShadow_11454_28338"/>
</filter>
<radialGradient id="paint0_radial_11454_28338" cx="0" cy="0" r="1" gradientUnits="userSpaceOnUse" gradientTransform="translate(605.381 282.127) rotate(-20.1366) scale(2001.17 873.763)">
<stop stop-color="#FF50A0"/>
<stop offset="0.301323" stop-color="#A100FF"/>
<stop offset="0.800256" stop-color="#7500C0"/>
<stop offset="1" stop-color="#00FFFF"/>
</radialGradient>
<radialGradient id="paint1_radial_11454_28338" cx="0" cy="0" r="1" gradientUnits="userSpaceOnUse" gradientTransform="translate(1489.88 565.293) rotate(41.7474) scale(644.299 4874.64)">
<stop stop-color="#FF50A0"/>
<stop offset="0.153907" stop-color="#A100FF"/>
<stop offset="0.764846" stop-color="#7500C0"/>
<stop offset="1" stop-color="#00FFFF"/>
</radialGradient>
<radialGradient id="paint2_radial_11454_28338" cx="0" cy="0" r="1" gradientUnits="userSpaceOnUse" gradientTransform="translate(1664.7 15.9845) rotate(-41.576) scale(324.926 2458.32)">
<stop stop-color="#FF50A0"/>
<stop offset="0.508713" stop-color="#A100FF"/>
<stop offset="0.800256" stop-color="#7500C0"/>
<stop offset="1" stop-color="#00FFFF"/>
</radialGradient>
<radialGradient id="paint3_radial_11454_28338" cx="0" cy="0" r="1" gradientUnits="userSpaceOnUse" gradientTransform="translate(1390.78 759.184) rotate(-16.3829) scale(164.505 456.475)">
<stop stop-color="#FF50A0"/>
<stop offset="0.467989" stop-color="#A100FF"/>
<stop offset="0.673088" stop-color="#7500C0"/>
<stop offset="1" stop-color="#00FFFF"/>
</radialGradient>
<radialGradient id="paint4_radial_11454_28338" cx="0" cy="0" r="1" gradientUnits="userSpaceOnUse" gradientTransform="translate(-429.887 600.828) rotate(-30.6164) scale(992.113 440.186)">
<stop stop-color="#FF50A0"/>
<stop offset="0.508713" stop-color="#A100FF"/>
<stop offset="0.800256" stop-color="#7500C0"/>
<stop offset="1" stop-color="#00FFFF"/>
</radialGradient>
<radialGradient id="paint5_radial_11454_28338" cx="0" cy="0" r="1" gradientUnits="userSpaceOnUse" gradientTransform="translate(-272.391 1437.73) rotate(-69.5403) scale(293.81 1927.62)">
<stop stop-color="#FF50A0"/>
<stop offset="0.508713" stop-color="#A100FF"/>
<stop offset="0.800256" stop-color="#7500C0"/>
<stop offset="1" stop-color="#00FFFF"/>
</radialGradient>
<radialGradient id="paint6_radial_11454_28338" cx="0" cy="0" r="1" gradientUnits="userSpaceOnUse" gradientTransform="translate(283.903 724.358) rotate(-40.0786) scale(202.256 554.582)">
<stop stop-color="#FF50A0"/>
<stop offset="0.276221" stop-color="#A100FF"/>
<stop offset="0.627889" stop-color="#7500C0"/>
<stop offset="1" stop-color="#00FFFF"/>
</radialGradient>
</defs>
</svg>
